<svg width="35" height="33" viewBox="0 0 35 33" fill="none" xmlns="http://www.w3.org/2000/svg">
<path d="M0.0936132 30.5316C0.104365 30.8215 0.123426 31.1258 0.150802 31.4443C0.179471 31.7628 0.215378 32.0666 0.258517 32.3556L11.6273 32.0177L13.2481 23.2603L7.42521 18.382C8.83341 16.1338 10.5236 14.0583 12.4959 12.1557C14.4682 10.2542 16.5978 8.6598 18.8847 7.37253L24.6557 12.1653L34.3615 10.2656L33.9841 0.0869947C33.6581 0.0386222 33.3169 0.0197333 32.9606 0.0303223L31.9403 0.0606453C27.7621 0.184825 23.7203 1.13988 19.8151 2.9258C15.9085 4.7106 12.4676 7.01921 9.49219 9.85164C6.51676 12.6829 4.17179 15.9019 2.45727 19.5085C0.742798 23.1164 -0.0450862 26.7907 0.0936132 30.5316Z" fill="white"/>
</svg>
