<svg width="40" height="40" viewBox="0 0 40 40" fill="none" xmlns="http://www.w3.org/2000/svg">
<path d="M20 40C31.0457 40 40 31.0457 40 20C40 8.95431 31.0457 0 20 0C8.95431 0 0 8.95431 0 20C0 31.0457 8.95431 40 20 40Z" fill="#4D76A1"/>
<path fill-rule="evenodd" clip-rule="evenodd" d="M19.2447 28.7714H20.8145C20.8145 28.7714 21.2887 28.7194 21.5307 28.4584C21.7536 28.2188 21.7464 27.7689 21.7464 27.7689C21.7464 27.7689 21.7158 25.6626 22.6934 25.3524C23.657 25.0469 24.8945 27.3882 26.2061 28.2884C27.198 28.9697 27.9517 28.8203 27.9517 28.8203L31.4587 28.7714C31.4587 28.7714 33.2934 28.6584 32.4235 27.216C32.3522 27.0979 31.9169 26.1489 29.8159 24.1987C27.6169 22.1577 27.9114 22.4878 30.5603 18.9572C32.1736 16.807 32.8185 15.4943 32.6171 14.9321C32.4249 14.3966 31.2384 14.5381 31.2384 14.5381L27.2896 14.5627C27.2896 14.5627 26.9969 14.5228 26.7798 14.6526C26.5676 14.7799 26.4311 15.0765 26.4311 15.0765C26.4311 15.0765 25.8061 16.7404 24.9726 18.1554C23.2142 21.1412 22.5112 21.2988 22.2238 21.1134C21.5553 20.6813 21.7222 19.3775 21.7222 18.4513C21.7222 15.5578 22.1611 14.3513 20.8676 14.039C20.4384 13.9353 20.1225 13.8668 19.0248 13.8558C17.6158 13.8411 16.4233 13.86 15.748 14.1909C15.2988 14.4109 14.9523 14.9011 15.1633 14.9292C15.4243 14.9642 16.0154 15.0886 16.3288 15.5154C16.7334 16.0658 16.7192 17.3022 16.7192 17.3022C16.7192 17.3022 16.9516 20.7084 16.1762 21.1316C15.6439 21.4218 14.9138 20.8293 13.3461 18.1204C12.5429 16.7329 11.9365 15.1991 11.9365 15.1991C11.9365 15.1991 11.8195 14.9125 11.611 14.7592C11.3578 14.5734 11.0042 14.5143 11.0042 14.5143L7.25181 14.5389C7.25181 14.5389 6.68851 14.5545 6.48173 14.7995C6.29776 15.0173 6.46711 15.4679 6.46711 15.4679C6.46711 15.4679 9.40483 22.3409 12.7311 25.8045C15.7812 28.98 19.2447 28.7714 19.2447 28.7714Z" fill="white"/>
</svg>
