<svg width="50" height="50" viewBox="0 0 50 50" fill="none" xmlns="http://www.w3.org/2000/svg">
<path d="M25.0002 40.1128C23.7804 40.1128 12.995 40.0898 9.91579 39.2638C8.77356 38.9572 7.73205 38.3555 6.89578 37.5192C6.0595 36.683 5.45785 35.6415 5.1512 34.4992C4.31058 31.3669 4.30225 25.2576 4.30225 24.9992C4.30225 24.7409 4.31162 18.6315 5.1512 15.4992C5.45874 14.3572 6.0608 13.3159 6.89713 12.4795C7.73347 11.6432 8.77476 11.0411 9.91683 10.7336C12.995 9.90756 23.7804 9.88361 25.0002 9.88361C26.22 9.88361 37.0054 9.90652 40.0856 10.7326C41.2275 11.0399 42.2686 11.6418 43.1048 12.4779C43.941 13.3141 44.5428 14.3552 44.8502 15.4971V15.4982C45.6887 18.6305 45.6981 24.7388 45.6981 24.9971C45.6981 25.2555 45.6887 31.3649 44.8502 34.4971C44.5429 35.6395 43.9408 36.6811 43.1042 37.5175C42.2677 38.3539 41.2259 38.9558 40.0835 39.2628C37.0054 40.0888 26.22 40.1128 25.0002 40.1128Z" fill="#FF0000"/>
<path d="M21.7575 31.224C21.4812 31.224 21.2163 31.1143 21.0209 30.9189C20.8256 30.7236 20.7158 30.4586 20.7158 30.1824V19.8147C20.7152 19.6316 20.7629 19.4515 20.8542 19.2928C20.9455 19.1341 21.0771 19.0023 21.2356 18.9108C21.3942 18.8192 21.5741 18.7712 21.7572 18.7715C21.9403 18.7718 22.1201 18.8205 22.2783 18.9126L31.2565 24.097C31.4148 24.1884 31.5463 24.3199 31.6377 24.4782C31.7291 24.6366 31.7772 24.8162 31.7772 24.999C31.7772 25.1819 31.7291 25.3615 31.6377 25.5198C31.5463 25.6782 31.4148 25.8097 31.2565 25.9011L22.2783 31.0855C22.1197 31.176 21.9402 31.2238 21.7575 31.224Z" fill="white"/>
</svg>
