<svg width="35" height="35" viewBox="0 0 35 35" fill="none" xmlns="http://www.w3.org/2000/svg">
<path d="M17.4999 25.6667C22.0102 25.6667 25.6666 22.0104 25.6666 17.5C25.6666 12.9897 22.0102 9.33337 17.4999 9.33337C12.9896 9.33337 9.33325 12.9897 9.33325 17.5C9.33325 22.0104 12.9896 25.6667 17.4999 25.6667Z" fill="#FFCE31"/>
<path d="M20.7665 7.99167L17.4999 0L14.2332 7.99167C15.2832 7.81667 16.3915 7.7 17.4999 7.7C18.6082 7.7 19.7165 7.81667 20.7665 7.99167ZM14.2332 27.0083L17.4999 35L20.7665 27.0083C19.7165 27.1833 18.6082 27.3 17.4999 27.3C16.3915 27.3 15.2832 27.1833 14.2332 27.0083ZM27.0082 20.7667L34.9999 17.5L27.0082 14.2333C27.1832 15.2833 27.2999 16.3917 27.2999 17.5C27.2999 18.6083 27.1832 19.7167 27.0082 20.7667ZM7.99154 14.2333L-0.00012207 17.5L7.99154 20.7667C7.81654 19.7167 7.69988 18.6083 7.69988 17.5C7.69988 16.3917 7.81654 15.2833 7.99154 14.2333ZM26.5415 13.0667L29.8665 5.13333L21.9332 8.45833C22.8082 9.1 23.6832 9.74167 24.4415 10.5583C25.2582 11.375 25.8999 12.1917 26.5415 13.0667ZM8.45821 21.9333L5.13321 29.8667L13.0665 26.5417C12.1915 25.9 11.3165 25.2583 10.5582 24.4417C9.74154 23.625 9.09988 22.8083 8.45821 21.9333ZM21.9332 26.5417L29.8665 29.8667L26.5415 21.9333C25.8999 22.8083 25.2582 23.6833 24.4415 24.4417C23.6249 25.2583 22.8082 25.9 21.9332 26.5417ZM13.0665 8.45833L5.13321 5.13333L8.45821 13.0667C9.09988 12.1917 9.74154 11.3167 10.5582 10.5583C11.3749 9.74167 12.1915 9.1 13.0665 8.45833Z" fill="#FFCE31"/>
</svg>
