<svg width="35" height="35" viewBox="0 0 35 35" fill="none" xmlns="http://www.w3.org/2000/svg">
<g clip-path="url(#clip0_262_1056)">
<path d="M25.8138 22.849C30.2512 20.5723 33.6151 18.8375 33.9051 18.7026C34.8326 18.2418 35.7905 17.0219 33.9051 16.0743C33.2963 15.7763 30.0188 14.0956 25.8138 11.928L19.9844 17.429L25.8138 22.8489V22.849Z" fill="#FFD900"/>
<path d="M19.9833 17.429L1.42188 34.9089C1.85755 34.9628 2.34942 34.8549 2.92932 34.557C4.14682 33.9343 17.0534 27.3483 25.8127 22.8503L19.9833 17.429Z" fill="#F43249"/>
<path d="M19.9848 17.429L25.8142 11.955C25.8142 11.955 4.23636 0.951626 2.93082 0.302082C2.43896 0.0298738 1.88776 -0.0509839 1.39453 0.0298738L19.9848 17.429Z" fill="#00EE76"/>
<path d="M19.9843 17.429L1.39402 0.0299072C0.639546 0.1929 0.00195312 0.815747 0.00195312 2.08954V32.8493C0.00195312 34.0152 0.495322 34.8549 1.42287 34.9359L19.9843 17.429Z" fill="#00D3FF"/>
</g>
<defs>
<clipPath id="clip0_262_1056">
<rect width="35" height="35" fill="white"/>
</clipPath>
</defs>
</svg>
