<svg width="35" height="35" viewBox="0 0 35 35" fill="none" xmlns="http://www.w3.org/2000/svg">
<g clip-path="url(#clip0_262_1055)">
<path d="M7.665 0H27.335C31.5684 0 35 3.43164 35 7.665V27.335C35 31.5684 31.5684 35 27.335 35H7.665C3.43164 35 0 31.5684 0 27.335V7.665C0 3.43164 3.43164 0 7.665 0Z" fill="url(#paint0_linear_262_1055)"/>
<path d="M11.2176 25.4037L11.2209 25.4048L10.0242 27.4774C9.58734 28.234 8.61992 28.4932 7.86332 28.0564C7.10686 27.6196 6.8475 26.6522 7.28432 25.8956L8.16588 24.3687L8.25051 24.2221C8.40158 24.005 8.77441 23.6302 9.52021 23.7007C9.52021 23.7007 11.2753 23.8912 11.4023 24.8033C11.4023 24.8033 11.4195 25.1034 11.2176 25.4037ZM28.1903 20.1099H24.4587C24.2045 20.0928 24.0936 20.002 24.0499 19.9493L24.0471 19.9445L20.0526 13.0257L20.0474 13.0291L19.8079 12.6857C19.4152 12.0852 18.7918 13.6208 18.7918 13.6208C18.0474 15.332 18.8975 17.2774 19.1938 17.8654L24.7421 27.4754C25.1788 28.2318 26.1462 28.4912 26.9029 28.0542C27.6594 27.6174 27.9187 26.65 27.4818 25.8934L26.0945 23.4904C26.0676 23.4322 26.0208 23.2741 26.3053 23.2735H28.1903C29.0639 23.2735 29.7721 22.5653 29.7721 21.6916C29.7721 20.818 29.0639 20.1099 28.1903 20.1099ZM20.9422 22.2602C20.9422 22.2602 21.1414 23.2735 20.3708 23.2735H6.57598C5.70234 23.2735 4.99414 22.5653 4.99414 21.6916C4.99414 20.818 5.70234 20.1098 6.57598 20.1098H10.1225C10.695 20.0767 10.8307 19.7461 10.8307 19.7461L10.8339 19.7478L15.4632 11.7295L15.4619 11.7292C15.5462 11.5743 15.476 11.4279 15.4638 11.4048L13.9349 8.75666C13.498 8.0002 13.7573 7.03264 14.5139 6.59596C15.2705 6.15914 16.2379 6.41822 16.6747 7.17482L17.3837 8.40297L18.0915 7.17701C18.5283 6.42055 19.4958 6.16119 20.2524 6.59814C21.009 7.03496 21.2682 8.00225 20.8314 8.75885L14.3895 19.9165C14.3613 19.9844 14.3527 20.0911 14.5623 20.1098H18.4128L18.4136 20.1474C18.4136 20.1474 20.6391 20.182 20.9422 22.2602Z" fill="white"/>
</g>
<defs>
<linearGradient id="paint0_linear_262_1055" x1="17.5" y1="0" x2="17.5" y2="35" gradientUnits="userSpaceOnUse">
<stop stop-color="#17C9FB"/>
<stop offset="1" stop-color="#1A74E8"/>
</linearGradient>
<clipPath id="clip0_262_1055">
<rect width="35" height="35" fill="white"/>
</clipPath>
</defs>
</svg>
