<svg width="40" height="41" viewBox="0 0 40 41" fill="none" xmlns="http://www.w3.org/2000/svg">
<path d="M19.7105 9.06508C21.5775 9.06508 23.368 9.59568 24.6882 10.5401C26.0083 11.4846 26.75 12.7656 26.75 14.1012C26.75 14.7626 26.5679 15.4175 26.2142 16.0285C25.8604 16.6395 25.3419 17.1947 24.6882 17.6623C24.0345 18.13 23.2585 18.501 22.4044 18.754C21.5503 19.0071 20.635 19.1374 19.7105 19.1374C17.8435 19.1374 16.053 18.6068 14.7329 17.6623C13.4127 16.7179 12.6711 15.4369 12.6711 14.1012C12.6711 12.7656 13.4127 11.4846 14.7329 10.5401C16.053 9.59568 17.8435 9.06508 19.7105 9.06508ZM19.7105 0C24.9381 0 29.9515 1.48566 33.648 4.13016C37.3444 6.77465 39.4211 10.3614 39.4211 14.1012C39.4211 24.6772 19.7105 40.2893 19.7105 40.2893C19.7105 40.2893 0 24.6772 0 14.1012C0 10.3614 2.07664 6.77465 5.77308 4.13016C9.46952 1.48566 14.483 0 19.7105 0ZM19.7105 4.02893C15.9766 4.02893 12.3955 5.09011 9.75521 6.97904C7.11489 8.86796 5.63158 11.4299 5.63158 14.1012C5.63158 16.1157 5.63158 20.1446 19.7105 33.6617C33.7895 20.1446 33.7895 16.1157 33.7895 14.1012C33.7895 11.4299 32.3062 8.86796 29.6658 6.97904C27.0255 5.09011 23.4445 4.02893 19.7105 4.02893Z" fill="white"/>
</svg>
