<svg width="35" height="35" viewBox="0 0 35 35" fill="none" xmlns="http://www.w3.org/2000/svg">
<path d="M19.4444 35V31.1111H23.3333V35H19.4444ZM15.5556 31.1111V21.3889H19.4444V31.1111H15.5556ZM31.1111 25.2778V17.5H35V25.2778H31.1111ZM27.2222 17.5V13.6111H31.1111V17.5H27.2222ZM3.88889 21.3889V17.5H7.77778V21.3889H3.88889ZM0 17.5V13.6111H3.88889V17.5H0ZM17.5 3.88889V0H21.3889V3.88889H17.5ZM2.91667 8.75H8.75V2.91667H2.91667V8.75ZM0 11.6667V0H11.6667V11.6667H0ZM2.91667 32.0833H8.75V26.25H2.91667V32.0833ZM0 35V23.3333H11.6667V35H0ZM26.25 8.75H32.0833V2.91667H26.25V8.75ZM23.3333 11.6667V0H35V11.6667H23.3333ZM27.2222 35V29.1667H23.3333V25.2778H31.1111V31.1111H35V35H27.2222ZM19.4444 21.3889V17.5H27.2222V21.3889H19.4444ZM11.6667 21.3889V17.5H7.77778V13.6111H19.4444V17.5H15.5556V21.3889H11.6667ZM13.6111 11.6667V3.88889H17.5V7.77778H21.3889V11.6667H13.6111ZM4.375 7.29167V4.375H7.29167V7.29167H4.375ZM4.375 30.625V27.7083H7.29167V30.625H4.375ZM27.7083 7.29167V4.375H30.625V7.29167H27.7083Z" fill="black"/>
</svg>
