<svg width="16" height="16" viewBox="0 0 16 16" fill="none" xmlns="http://www.w3.org/2000/svg">
<path d="M12.986 3.03153C12.9046 2.84576 12.6744 2.78822 12.2196 2.79807C11.4275 2.87776 10.0911 5.71989 10.1174 3.96893C8.8989 3.30768 10.06 5.97061 8.77986 6.24841C7.9908 7.14072 8.32896 5.69557 8.23382 5.26004C8.08723 4.63807 8.37025 4.19437 8.824 3.87196L10.0749 2.53199C9.38877 0.858972 7.88813 4.45486 8.21925 2.38471C8.50875 1.75329 7.98144 0.889521 7.50265 0.837384L7.51013 0.837222C7.38428 0.83995 7.26625 0.904977 7.15601 1.03239C7.0548 1.0971 6.96014 1.22424 6.89572 1.41318L6.88824 1.41335C6.85493 1.47658 6.82195 1.60226 6.80234 1.6652L6.79549 1.66535C6.78149 1.72817 6.76251 1.79111 6.76068 1.91618L6.77065 1.91596C6.76849 1.97852 6.76633 2.0411 6.78318 2.16576L6.79315 2.16555C6.80968 2.2277 6.82965 2.35231 6.86612 2.41404L6.87609 2.41382C6.92662 2.66278 6.94381 2.84991 6.93791 2.91255L6.94883 2.97489C6.94447 2.97498 6.92611 3.03788 6.91178 3.03819C6.89621 3.03853 6.87162 3.10156 6.84546 3.10213C6.81867 3.10271 6.78843 3.04086 6.75292 3.04163C6.64482 2.98146 6.50552 2.79695 6.34039 2.67551C6.12459 2.49264 5.86716 2.24813 5.63583 2.19063C5.51391 2.19327 5.40202 2.19568 5.29501 2.26052C5.2428 2.26165 5.20226 2.32509 5.15693 2.38858C5.10705 2.45218 5.0621 2.57812 5.02007 2.64155L6.3308 3.926C6.56508 4.04595 6.76015 4.29172 6.8764 4.47674C6.90538 4.53863 6.93375 4.60056 6.95277 4.66266C6.97241 4.72475 6.98583 4.787 6.99488 4.84932C7.01548 4.9739 7.00804 5.09906 6.9785 5.28724C6.9589 5.35018 6.97546 5.53734 6.99203 5.72452C7.00079 5.84936 6.99053 5.91211 6.99709 5.97448C7.00398 6.09936 7.02333 6.22397 7.02054 6.28655C7.019 6.34909 7.01934 6.41163 7.0016 6.47453C6.97514 6.53762 6.91907 6.53882 6.83995 6.54053C6.76332 6.54219 6.64679 6.41968 6.49972 6.29783L6.48976 6.29805C6.33368 6.23892 6.20738 6.17919 6.11223 6.11874C6.06287 6.05729 6.02853 5.99549 5.99181 5.93377C5.95273 5.87211 5.91247 5.81043 5.88585 5.7485C5.83672 5.62453 5.8095 5.43761 5.78722 5.31306L5.77738 5.31328C5.76525 5.18851 5.76505 5.12599 5.75786 5.06363C5.75018 5.00128 5.75328 4.93868 5.74558 4.81382C5.73964 4.75144 5.73445 4.68908 5.72764 4.62671C5.72077 4.56435 5.7013 4.43973 5.69106 4.37743C5.68701 4.37752 5.67387 4.37782 5.66706 4.31546C5.60099 4.00432 5.4602 3.81981 5.05284 4.0787L5.06274 4.07848C5.06932 4.20337 5.06255 4.26604 5.05796 4.32866C5.05796 4.32866 5.06818 4.32842 5.06938 4.39091C5.06404 4.45354 5.04292 4.45397 5.02923 4.51678C5.01411 4.57962 5.0006 4.57996 4.97651 4.64299L4.88125 4.64506C4.81403 4.64652 4.72486 4.58589 4.63033 4.52542C4.34848 4.28147 3.96787 3.78966 3.59882 3.42257C3.35061 3.17789 3.10491 2.99563 2.90555 2.99995C2.90138 3.00004 2.89825 2.93761 2.89407 2.9377C2.42795 2.9478 2.21817 3.07738 2.15231 3.26635C2.13464 3.32925 2.12058 3.39209 2.12091 3.4546C2.12091 3.4546 2.1355 3.51677 2.15172 3.57893C2.18228 3.7033 2.24144 3.82709 2.32847 4.01275C2.48872 4.25933 2.72989 4.50413 2.97717 4.74883C3.2298 4.99341 3.48535 5.17543 3.67888 5.29626C3.95007 5.47793 4.07638 5.6002 4.09129 5.66239C4.09478 5.66232 4.0862 5.725 4.07841 5.72517C4.01055 5.85167 3.52809 5.79965 3.29139 5.9298C3.23982 5.99344 3.20159 6.05673 3.18186 6.11967C3.20362 6.18172 3.23141 6.18116 3.26388 6.24297C3.35992 6.36592 3.48952 6.42564 3.65532 6.48456C3.98602 6.53991 4.41973 6.46798 4.81217 6.52198C4.94195 6.58169 5.06169 6.57906 5.17547 6.63911C5.34538 6.69794 5.49213 6.81977 5.59772 7.00503C5.63451 7.12926 5.66332 7.19116 5.68825 7.25314C5.8168 7.31286 5.9092 7.37341 5.97034 7.4346C6.03147 7.49579 6.05747 7.55769 6.06384 7.62007L6.05661 7.62022C6.04733 7.62042 6.04154 7.62061 6.02399 7.68351C5.83487 7.75012 5.18406 7.6392 4.89376 7.708C4.65935 7.7756 4.44131 7.78032 4.24056 7.72216C4.03988 7.664 3.85483 7.60548 3.68023 7.48423C3.59785 7.4235 3.51273 7.3628 3.43496 7.30198C3.3529 7.24124 3.26504 7.18068 3.18702 7.11985C3.03371 6.93563 2.88164 6.75136 2.73925 6.62941C2.71799 6.56736 2.70115 6.50518 2.67004 6.44334C2.63726 6.38154 2.59163 6.32006 2.54963 6.25845C2.51555 6.25919 2.47354 6.19754 2.4334 6.1359C2.39048 6.13683 2.34257 6.13788 2.29445 6.07641L2.14263 6.0797C1.9987 6.02031 1.8502 6.08604 1.72934 6.08866C1.64077 6.15309 1.58304 6.21689 1.53172 6.28051C1.50531 6.28109 1.4834 6.34406 1.46758 6.3444C1.4537 6.40722 1.44317 6.40742 1.44188 6.46996L1.45173 6.46975C1.45262 6.53224 1.45847 6.53216 1.47002 6.59442C1.49996 6.7188 1.58867 6.90439 1.80843 7.02466C2.1778 7.2042 2.35466 7.38794 2.39818 7.51202C2.40827 7.5118 2.40063 7.57447 2.39521 7.57458C2.38836 7.57473 2.3971 7.63704 2.38233 7.63736L2.36526 7.63773C2.28423 7.702 2.1247 7.76802 1.91631 7.77254L1.89924 7.77291L1.56414 7.78017L1.54701 7.78054L0.854429 7.79555C0.661489 7.79973 0.5223 7.86522 0.419569 7.99248L0.385405 7.99322C0.300498 8.05757 0.24456 8.12133 0.21738 8.18443C0.214197 8.1845 0.214436 8.24699 0.211736 8.24705C0.201464 8.24728 0.184433 8.31014 0.184433 8.31014L0.195872 8.37239C0.195872 8.37239 0.210382 8.43464 0.224035 8.49686C0.276939 8.68325 0.442287 8.80465 0.664595 8.98738C0.773899 9.04752 0.885976 9.10765 1.01344 9.10489C1.27669 9.22421 1.56021 9.21807 1.81579 9.0875C2.30342 8.9519 2.47863 9.01062 2.48868 9.07292C2.4834 9.13555 2.44031 9.19895 2.3647 9.2631C2.28642 9.38983 2.1823 9.51711 2.07304 9.58199C1.97689 9.70911 1.87445 9.83642 1.79281 9.96321L1.78559 9.96337C1.70258 10.0902 1.62805 10.2168 1.60171 10.2799C1.59039 10.3427 1.58256 10.4053 1.59006 10.4677L1.5999 10.4675C1.60266 10.5299 1.61132 10.5297 1.61132 10.5297C1.64138 10.6541 1.7638 10.839 2.07039 10.8949L3.32253 9.61749C3.3277 9.61737 3.32452 9.61738 3.32812 9.55479C3.41283 9.49044 3.49116 9.36377 3.58721 9.29918C3.87358 9.04291 4.22236 8.91033 4.66681 8.96321C5.00262 9.01844 5.74567 8.81478 5.93337 8.99825L5.96296 8.99761C5.96703 9.06004 5.97438 9.05986 5.97438 9.05986C5.97438 9.05986 5.9669 9.06001 5.9615 9.12264C5.93585 9.18571 5.85416 9.31251 5.6896 9.44111L5.69944 9.44089C5.68902 9.56615 5.66598 9.62919 5.63652 9.62983C5.27294 10.4504 3.63295 9.9858 3.41031 10.4282C3.39535 10.4285 3.37594 10.4915 3.37471 10.5541L3.38455 10.5539C3.38455 10.5539 3.37753 10.6165 3.39562 10.6786C3.41364 10.7407 3.44718 10.8026 3.4918 10.8641L3.50164 10.8639C3.72212 10.8591 3.86273 10.856 3.95601 10.9165C4.03444 10.9148 4.08866 10.9761 4.08208 11.0388C4.043 11.4147 2.69386 12.2567 2.43295 12.8875C2.41009 12.888 2.38786 12.9509 2.38296 13.0136L2.3928 13.0133C2.39515 13.1383 2.39562 13.2633 2.40935 13.3256L2.41919 13.3253C2.43354 13.3876 2.4462 13.4498 2.47127 13.5118C2.47338 13.5117 2.48057 13.5741 2.48275 13.574C2.53535 13.6354 2.61619 13.7587 2.70372 13.7568C3.25782 13.9949 4.40826 12.8447 4.73566 12.2749C4.94669 11.9578 5.06527 11.8302 5.13387 11.8287C5.16167 11.8906 5.18079 11.8902 5.1962 11.9524L5.20604 11.9522C5.2217 12.0143 5.22951 12.0767 5.24263 12.2014C5.2739 12.3883 5.31957 12.6374 5.45019 12.7596L5.5409 12.7576C5.6168 12.8185 5.70333 12.8166 5.82934 12.7514C5.82789 12.6889 5.83499 12.6887 5.83499 12.6887C5.83296 12.5638 5.82345 12.4389 5.82871 12.3137C5.82871 12.3137 5.83525 12.3136 5.83436 12.2511C5.84024 12.126 5.85678 12.0006 5.87206 11.8752L5.87929 11.8751C5.89589 11.7497 5.91516 11.6242 5.94397 11.4986C5.97439 11.3729 6.00505 11.1847 6.05269 11.1212C6.13061 10.8694 6.24668 10.6794 6.38175 10.4889C6.40891 10.4883 6.42347 10.4254 6.45149 10.3623C6.53769 10.2979 6.61802 10.1711 6.72733 10.1063C6.83507 9.97889 6.95996 9.91367 7.09262 9.78577L7.1453 11.9726C6.89032 12.4158 6.3794 12.8019 6.02287 13.2472C5.8758 13.3129 5.77222 13.3777 5.69014 13.5045C5.6565 13.5053 5.61659 13.5686 5.59192 13.5692C5.58724 13.5693 5.58905 13.5693 5.58627 13.6318C5.55898 13.6324 5.54025 13.6953 5.52637 13.7581L5.51915 13.7583C5.50035 13.8212 5.47682 13.8843 5.48319 13.9467C5.49046 14.0715 5.52219 14.1333 5.56644 14.1948C5.63002 14.3185 5.72785 14.3789 5.83868 14.3765C5.88337 14.4381 5.9162 14.4373 5.9651 14.4363C6.05232 14.4344 6.1493 14.3698 6.24778 14.3052C6.34632 14.2405 6.44809 14.1758 6.54933 13.986C6.63161 13.9217 6.70259 13.7952 6.76456 13.7313C6.88788 13.6036 6.98473 13.539 7.04608 13.4751C7.06851 13.4746 7.09562 13.5366 7.1112 13.5362C7.1514 13.5979 7.16793 13.66 7.17731 13.7849C7.18669 13.9097 7.19828 14.097 7.19769 14.2221C7.19806 14.4096 7.18784 14.5973 7.19942 14.7846L7.20939 14.7844C7.22159 14.9717 7.23534 15.0964 7.27807 15.283C7.31922 15.4072 7.39402 15.5306 7.4875 15.6536C7.5358 15.715 7.58128 15.7141 7.64765 15.7752C7.71618 15.7737 7.78878 15.8346 7.8816 15.8326C9.24096 15.8031 7.73909 12.2099 9.12078 13.9303C9.99485 14.9741 10.7289 13.5828 9.61209 13.1694C9.2335 12.7401 8.68922 12.4393 8.41059 11.9452L8.34952 9.8211C9.45552 10.4223 9.73151 11.479 9.77081 12.6659C10.7275 13.0828 9.93475 10.912 10.8422 12.1426C11.3128 12.8825 13.3094 14.5897 13.2362 12.7783C13.1033 12.031 10.2555 10.655 12.0208 10.6792C12.6973 9.47681 10.0013 10.6605 9.75579 9.35298C8.84068 8.56012 10.2528 8.96716 10.7468 8.83143C11.3336 8.69368 11.7595 8.99702 12.1157 9.4269L13.435 10.6486C15.1125 9.98709 11.5096 8.50231 13.6129 8.83181C14.6375 9.2472 16.0429 7.77892 14.4918 7.49997C13.6754 7.58018 12.0532 7.6153 13.4911 6.77144C14.554 5.93572 12.844 5.28514 12.5571 6.41662C11.9997 7.05384 11.4125 7.81677 10.4624 7.58731C9.99353 7.53495 8.63146 7.877 9.62959 7.16771C9.97028 5.84753 11.7885 6.80833 12.0897 5.9266C11.9064 5.43046 10.4992 5.96112 11.5447 5.12578C12.1081 4.80099 13.2288 3.5889 12.986 3.03153Z" fill="#3498DB"/>
</svg>
