<?xml version="1.0" standalone="no"?>
<!DOCTYPE svg PUBLIC "-//W3C//DTD SVG 20010904//EN"
 "http://www.w3.org/TR/2001/REC-SVG-20010904/DTD/svg10.dtd">
<svg version="1.0" xmlns="http://www.w3.org/2000/svg"
 width="128.000000pt" height="128.000000pt" viewBox="0 0 128.000000 128.000000"
 preserveAspectRatio="xMidYMid meet">
<metadata>
Created by potrace 1.14, written by Peter Selinger 2001-2017
</metadata>
<g transform="translate(0.000000,128.000000) scale(0.100000,-0.100000)"
fill="#000000" stroke="none">
<path d="M792 1254 c-7 -8 -10 -14 -6 -14 3 0 2 -6 -4 -13 -7 -8 -7 -18 -2
-27 12 -19 13 -33 1 -26 -12 8 -41 -3 -41 -15 0 -5 16 -9 36 -9 24 0 41 -6 50
-17 27 -37 37 28 14 89 -16 43 -29 52 -48 32z"/>
<path d="M572 1199 c-7 -11 -15 -48 -18 -81 -3 -36 -11 -67 -21 -76 -14 -14
-14 -17 3 -29 16 -12 16 -14 1 -31 -9 -10 -17 -25 -17 -34 0 -18 -28 -75 -41
-84 -5 -3 -8 -2 -7 3 3 10 -22 85 -32 96 -4 5 -15 1 -24 -9 -16 -15 -19 -15
-42 6 -30 29 -31 44 -1 34 21 -6 21 -6 5 13 -10 11 -18 22 -18 26 0 3 8 4 18
1 11 -4 9 1 -8 16 -17 14 -21 23 -12 27 16 6 15 23 -2 23 -15 0 -28 48 -15 56
5 3 9 10 9 17 0 6 -7 2 -15 -9 -18 -27 -26 -95 -13 -111 7 -9 0 -18 -24 -34
-25 -16 -27 -20 -11 -16 13 3 25 2 28 -3 6 -10 -18 -30 -64 -52 -22 -11 -26
-15 -11 -11 45 11 75 9 75 -6 0 -19 -106 -72 -121 -60 -6 4 -9 30 -7 56 5 58
-5 53 -12 -8 -7 -55 -12 -84 -14 -84 -1 0 -4 -12 -6 -28 -2 -15 0 -25 5 -22
12 7 20 -8 12 -22 -4 -6 -27 -27 -50 -47 -24 -20 -40 -36 -35 -36 5 0 14 5 21
12 19 19 52 17 52 -2 0 -28 -30 -46 -78 -49 -7 -1 -17 -12 -22 -26 -5 -14 -14
-25 -19 -25 -5 0 -11 -6 -14 -14 -5 -11 0 -12 24 -3 16 6 29 15 29 20 0 4 4 6
9 2 5 -3 16 2 24 10 20 19 53 9 36 -11 -6 -8 -17 -14 -23 -14 -6 0 -17 -9 -24
-20 -7 -11 -21 -20 -31 -20 -10 0 -22 -7 -25 -16 -3 -8 -9 -13 -14 -10 -4 2
-14 1 -21 -3 -7 -5 -1 -8 18 -9 17 0 31 4 31 9 0 5 16 9 35 9 36 0 47 -13 20
-24 -19 -7 -15 -38 8 -61 10 -10 16 -24 13 -31 -3 -8 -2 -14 3 -14 13 0 19
-69 6 -74 -5 -2 -2 -5 8 -5 20 -1 22 -12 5 -29 -9 -9 -9 -12 0 -12 7 0 12 -6
11 -12 -3 -20 12 -68 22 -68 5 0 8 -3 8 -7 -4 -22 3 -25 16 -7 13 17 14 17 15
2 0 -10 5 -18 10 -18 6 0 10 -9 10 -19 0 -38 18 -30 25 12 5 23 9 44 10 47 10
36 18 49 26 44 6 -3 8 -13 5 -21 -3 -8 -2 -12 3 -8 8 4 23 -36 25 -67 2 -20
16 -18 17 3 0 13 3 33 5 44 3 11 6 30 7 42 1 13 5 23 10 23 4 0 7 7 7 16 0 18
24 14 26 -4 1 -7 2 -13 3 -14 2 -2 4 -13 7 -25 2 -12 5 -28 6 -35 2 -7 11 -21
21 -32 9 -11 17 -29 18 -40 0 -20 1 -20 11 1 8 17 6 32 -7 65 -41 103 -53 158
-51 240 1 52 8 96 18 118 16 35 17 35 12 5 -11 -65 -10 -153 2 -206 19 -82 61
-169 82 -169 14 0 14 2 3 9 -11 7 -11 15 -3 39 7 21 7 33 -1 41 -8 8 -8 11 0
11 6 0 14 18 18 40 4 22 12 43 17 46 7 5 9 -2 6 -19 -3 -16 -1 -25 6 -24 11 2
12 -4 15 -51 1 -14 5 -21 12 -16 8 5 8 1 0 -14 -8 -15 -8 -21 2 -25 9 -3 9 -7
-1 -19 -10 -13 -10 -17 2 -21 9 -4 12 -14 9 -26 -9 -36 15 -23 27 14 13 41 25
44 50 13 18 -22 19 -22 16 -3 -2 11 4 31 13 45 11 16 12 22 3 16 -11 -7 -11
-4 -1 12 17 27 56 37 77 20 9 -7 13 -8 9 -2 -4 7 -2 26 5 44 9 27 12 30 20 16
5 -9 6 -21 2 -28 -4 -7 -3 -8 4 -4 11 6 18 -27 13 -56 0 -5 2 -8 7 -8 12 0 11
-50 -2 -50 -6 0 -3 -5 7 -11 14 -8 16 -14 6 -25 -9 -11 -9 -14 0 -14 7 0 11
-10 9 -22 -2 -11 3 -22 10 -24 7 -1 8 0 2 3 -6 3 -4 15 5 34 9 16 13 29 10 29
-3 0 -1 9 5 20 6 11 15 18 21 15 5 -4 7 -10 5 -14 -3 -4 1 -8 8 -8 8 0 14 10
14 21 2 53 9 93 22 116 l13 25 14 -39 c14 -42 30 -66 19 -28 -5 14 -3 22 5 22
9 0 8 4 -1 15 -10 12 -9 15 4 15 13 0 15 4 6 19 -7 14 -7 22 0 26 25 15 -6 22
-77 18 -43 -3 -89 0 -103 5 l-25 11 30 1 c17 1 37 3 45 5 8 1 31 5 50 9 19 3
46 9 60 12 14 4 61 6 106 5 77 -1 82 0 112 29 18 17 32 35 32 40 0 6 -19 31
-42 56 -38 41 -45 56 -47 106 -1 9 -15 32 -31 50 -21 22 -29 40 -25 53 2 11 7
29 10 40 3 11 0 28 -8 39 -13 18 -15 17 -42 -8 -15 -14 -35 -26 -44 -26 -10 0
-12 3 -6 8 6 4 20 20 31 36 l21 29 -28 43 c-30 44 -53 59 -72 47 -7 -3 -9 -3
-5 1 3 4 0 23 -8 41 -12 30 -12 35 2 43 15 8 15 10 -1 15 -9 4 -14 11 -11 16
3 5 -1 12 -10 15 -9 3 -14 12 -11 19 3 7 -4 28 -14 47 -10 19 -18 29 -19 22 0
-7 -5 -10 -10 -7 -6 4 -10 3 -9 -2 6 -34 -3 -53 -24 -53 -22 0 -23 -3 -21 -75
1 -41 -2 -77 -6 -80 -15 -9 -40 7 -40 26 0 10 -4 19 -10 19 -9 0 -14 -14 -11
-33 1 -4 -12 -6 -28 -5 -23 2 -28 5 -19 15 6 7 8 23 5 35 -4 12 -1 29 6 37 10
12 9 13 -3 6 -8 -4 -22 -14 -31 -21 -8 -8 -40 -16 -70 -18 -30 -2 -61 -7 -70
-11 -35 -14 -27 14 15 57 37 36 42 47 34 62 -8 14 -7 21 3 27 11 7 11 9 1 9
-7 0 -18 11 -24 25 -14 30 -19 31 -36 4z m48 -204 c0 -8 -2 -15 -4 -15 -2 0
-6 7 -10 15 -3 8 -1 15 4 15 6 0 10 -7 10 -15z m60 5 c0 -5 -4 -10 -9 -10 -6
0 -13 5 -16 10 -3 6 1 10 9 10 9 0 16 -4 16 -10z m-123 -37 c-9 -9 -20 -13
-24 -9 -4 4 -1 11 7 16 25 16 35 11 17 -7z m348 7 c3 -5 2 -10 -4 -10 -5 0
-13 5 -16 10 -3 6 -2 10 4 10 5 0 13 -4 16 -10z m-215 -14 c0 -2 -7 -9 -15
-16 -13 -11 -14 -10 -9 4 5 14 24 23 24 12z m305 -16 c3 -6 -1 -7 -9 -4 -18 7
-21 14 -7 14 6 0 13 -4 16 -10z m-615 -16 c0 -9 -7 -14 -17 -12 -25 5 -28 28
-4 28 12 0 21 -6 21 -16z m387 -16 c-3 -8 -6 -5 -6 6 -1 11 2 17 5 13 3 -3 4
-12 1 -19z m-83 -43 c3 -8 1 -15 -4 -15 -6 0 -10 7 -10 15 0 8 2 15 4 15 2 0
6 -7 10 -15z m-369 -26 c-4 -5 -12 -9 -20 -9 -7 0 -20 -6 -27 -12 -17 -16 -76
-58 -81 -58 -9 0 2 55 12 58 5 2 7 10 4 18 -5 14 11 19 55 15 12 -1 22 3 22 9
0 8 6 8 20 0 11 -6 18 -15 15 -21z m372 -84 c3 -19 0 -23 -13 -18 -11 4 -12 8
-4 13 9 6 9 9 1 14 -6 4 -9 12 -5 17 8 14 17 3 21 -26z"/>
<path d="M673 1126 c0 -8 6 -12 14 -9 7 3 10 9 7 14 -8 14 -21 11 -21 -5z"/>
<path d="M803 1123 c-7 -3 -13 -14 -13 -25 0 -14 5 -18 15 -15 8 4 17 2 20 -3
11 -18 23 -11 18 10 -6 24 -24 39 -40 33z"/>
<path d="M120 775 c-11 -13 -10 -14 4 -9 9 3 16 10 16 15 0 13 -6 11 -20 -6z"/>
<path d="M340 116 c0 -2 7 -7 16 -10 8 -3 12 -2 9 4 -6 10 -25 14 -25 6z"/>
<path d="M620 111 c0 -6 4 -12 8 -15 5 -3 9 1 9 9 0 8 -4 15 -9 15 -4 0 -8 -4
-8 -9z"/>
</g>
</svg>
